<svg xmlns="http://www.w3.org/2000/svg" xmlns:xlink="http://www.w3.org/1999/xlink" version="1.1" x="0px" y="0px" viewBox="54 0 144 144" enable-background="new 54 0 144 144" xml:space="preserve"><g><path fill="#222222" d="M114.5 62.5c6.1-2.8 9-9.3 8.5-13.6c-0.4-2.8-1.1-4.8-3.9-4.5c-5.7 0.7-7 7.2-6.1 13.5 C113.5 61.1 114.5 62.5 114.5 62.5z"/><path fill="#222222" d="M126 15.6c-31.1 0-56.4 25.3-56.4 56.4s25.3 56.4 56.4 56.4s56.4-25.3 56.4-56.4S157.1 15.6 126 15.6z M116.1 107.1c-13.9 1.7-21.6-5-22.6-13.4c-1-8.5 4.8-18.8 18-23.8c-1-0.6-2-1.4-2.8-2.2c-1.6 0.3-3.1 0.6-4.9 0.8 c-15.9 1.9-22.8-3.4-23.5-9c-0.6-4.9 3.4-10 10.5-10.8c3.9-0.5 7.2 0 10 2.1c0.8 0.5 1 2.7-0.3 3.9s-2.9 0.7-3.4 0.2 c-1.3-1.3-3.1-1.8-5.7-1.5c-2.9 0.3-4.4 3-4.1 5.7c0.5 3.9 4.3 8 16.1 6.6c1.2-0.2 2.2-0.3 3.3-0.5c-0.9-1.7-1.5-3.6-1.8-5.6 c-0.9-7.8 3.7-16.7 13.9-17.9c7-0.8 11.2 2.4 11.7 7c0.7 5.7-2.9 12.8-14.6 16.9c0.6 1.1 1.8 2.1 1.8 2.1c1.1-0.3 3.2-0.9 5.1-0.9 h0.2c0 0 3-0.1 2.8 2.6c-0.3 2.4-2.8 2.7-2.8 2.7l-0.4 0.1c-3.1 0.4-5.7 0.1-8-0.6c-10.7 4.2-12.2 13.4-11.3 21.1 c0.9 7.2 5.4 12.9 12.7 11.8c10.8-1.7 12.1-9.5 11.5-14.8c-0.4-3.3-1.6-8.4-4.8-8.1c-3.5 0.3-4.4 3.4-4.3 6.9 c0.1 1.1 0.6 2.3 1.3 3.3c0.3 0.3 2.3 3.1-0.9 5.1c-2.6 1.6-5.2 0.1-6.2-1.3c-1-1.5-1.6-3.1-1.8-4.8c-0.7-5.9 3.6-11.8 11.9-12.8 c8.2-1 12.9 3.6 13.6 9.4C137.4 95.1 131 105.3 116.1 107.1z M163.8 91.7c-2.3 3.3-4.8 5-8.6 5.4c-4.6 0.5-6.6-2.5-6.6-5.7 c0-1.3 1.1-5.5 1.1-5.5c6.4-25.6 7.8-27.5 8.3-30.4c0.2-1.4 0.2-2.9-0.8-2.9c-1.7-0.1-4.8 4.3-6.9 12.6c-0.3 1-0.8 2.6-3.6 15.3 l0 0c-0.4 1.5-0.6 3.1-1.1 4.7c-0.3 0.9-1.2 2.2-3.6 2.1c-2.1-0.1-3.1-1.4-3.1-3.1c0-0.7 0.3-2.3 0.8-4.2c3.8-16.8 5.2-22 5.7-25.4 c0.2-1.2 0.1-2.7-0.6-2.7c-3 0-7 10.2-9.2 21.5c-0.2 1-0.8 2.5-3.7 2.4c-1.7 0-3.3-1.5-3.3-2.9c0-1.8 2.9-14.9 5.8-22.9 c0.3-1 1.4-1.4 2.4-1.4c1.6 0 3.2 0.9 3.2 2.4c0 0.3 0 0.5-0.1 0.8c1.7-1.9 4.1-4.3 7.2-4.3c5.2 0 4.7 3.1 4.4 5.6 c1.3-2.9 4.9-5.6 8-5.6c3.8 0 5.4 2.5 5.4 4.4c0 3.6-1.9 8.8-8.5 33.8c0 0.2-0.9 3.4-0.9 5c-0.1 0.8 0.6 1.6 1.4 1.6 c1.7 0 3-1.2 4.1-2.9c0.4-0.7 0.7-1.6 0.7-2.3c0 0-1.8-1.1-1.5-2.9s2.1-2.6 3.9-2.1c1.9 0.5 2.1 2.3 2 3.6 C166.1 87.3 165.3 89.5 163.8 91.7z"/><path fill="#222222" d="M126 7.2c-35.8 0-64.8 29-64.8 64.8s29 64.8 64.8 64.8s64.8-29 64.8-64.8S161.8 7.2 126 7.2z M168.6 114.6 c-11.3 11.3-26.5 17.6-42.6 17.6s-31.2-6.3-42.5-17.6C72.1 103.2 65.9 88.1 65.9 72s6.3-31.2 17.6-42.5 c11.3-11.4 26.4-17.6 42.5-17.6s31.2 6.3 42.6 17.6C179.9 40.8 186.2 56 186.2 72C186.1 88.1 179.9 103.2 168.6 114.6z"/></g></svg>